<svg xmlns="http://www.w3.org/2000/svg" viewBox="0 0 220 72" role="img" aria-labelledby="title">
  <title id="title">BTG Pactual</title>
  <rect width="220" height="72" rx="18" fill="#ffffff"/>
  <circle cx="36" cy="36" r="18" fill="#0b1f3a"/>
  <path d="M30 44V28h8.8c4.1 0 6.7 1.8 6.7 4.7 0 1.8-1 3.2-2.8 4 2.3.7 3.6 2.2 3.6 4.4 0 3.2-2.7 4.9-7.1 4.9H30Zm4.2-9.5h4c1.8 0 2.8-.7 2.8-2s-1-2-2.8-2h-4v4Zm0 6.9h4.7c2 0 3-.7 3-2.1 0-1.5-1-2.2-3-2.2h-4.7v4.3Z" fill="#ffffff"/>
  <text x="66" y="42" fill="#0b1f3a" font-family="Arial, Helvetica, sans-serif" font-size="24" font-weight="900">BTG</text>
  <text x="117" y="42" fill="#0b1f3a" font-family="Arial, Helvetica, sans-serif" font-size="24" font-weight="500">Pactual</text>
</svg>
